<?xml version="1.0" encoding="utf-8"?>
<!-- Generator: Adobe Illustrator 18.0.0, SVG Export Plug-In . SVG Version: 6.00 Build 0)  -->
<!DOCTYPE svg PUBLIC "-//W3C//DTD SVG 1.1//EN" "http://www.w3.org/Graphics/SVG/1.1/DTD/svg11.dtd">
<svg version="1.1" id="Layer_1" xmlns="http://www.w3.org/2000/svg" xmlns:xlink="http://www.w3.org/1999/xlink" x="0px" y="0px"
	 width="362.3px" height="100.4px" viewBox="-74 307 362.3 100.4" enable-background="new -74 307 362.3 100.4"
	 xml:space="preserve">
<path id="XMLID_28_" fill="#977857" d="M-48.9,407.1V332h21.5c7.8,0,14.7,4,17.1,11L14,407h28l-28.1-73.7
	c-1.2-5.6-10-26.3-34.5-26.3H-74v100L-48.9,407.1L-48.9,407.1z"/>
<path id="XMLID_27_" fill="#977857" d="M263.2,307.1v75.1h-21.5c-8.2,0-14.5-5-17.1-11l-24.3-64h-28.1l28.1,73.7
	c3,9.8,12,26.3,34.5,26.3h53.4v-100L263.2,307.1L263.2,307.1z"/>
<polygon id="XMLID_26_" fill="#977857" points="93.6,407.1 67.5,407.1 58.1,382 84,382 "/>
<path id="XMLID_25_" fill="#977857" d="M158,385.6c0,0-26.1-69-26.5-69.8c-3.4-5.4-8.6-9-15.9-8.8H93.7c0,0,8.6,6.2,14,21.5
	c0,0,24.9,65.8,25.5,67.2c2.6,7,8.8,11.6,14.7,11.6h24.3C172.1,407.1,163.4,400.6,158,385.6"/>
</svg>
