<?xml version="1.0" encoding="UTF-8" standalone="no"?><!-- Generator: Gravit.io --><svg xmlns="http://www.w3.org/2000/svg" xmlns:xlink="http://www.w3.org/1999/xlink" style="isolation:isolate" viewBox="0 55.964 512 512.182" width="512pt" height="512.182pt"><path d=" M 368.347 101.081 L 368.347 76.636 L 343.902 76.636 L 343.902 76.636 L 343.902 101.081 L 319.458 101.081 L 319.458 112 L 319.458 112 L 319.458 125.525 L 343.902 125.525 L 343.902 149.969 L 368.347 149.969 L 368.347 125.525 L 392.791 125.525 L 392.791 112 L 392.791 112 L 392.791 101.081 L 368.347 101.081 Z  M 200.249 320.396 L 100.693 454.369 L 412.444 454.369 L 335.36 353.676 L 279.324 420.236 L 200.249 320.396 L 200.249 320.396 L 200.249 320.396 L 200.249 320.396 L 200.249 320.396 L 200.249 320.396 Z  M 271.539 301.996 C 271.539 287.191 283.559 275.171 298.363 275.171 C 313.168 275.171 325.188 287.191 325.188 301.996 C 325.188 316.8 313.168 328.82 298.363 328.82 C 283.559 328.82 271.539 316.8 271.539 301.996 L 271.539 301.996 L 271.539 301.996 Z  M 276.569 55.964 L 435.68 55.964 C 446.718 55.964 455.68 64.926 455.68 75.964 L 455.68 112 L 392.791 112 L 368.347 112 L 343.902 112 L 319.458 112 L 256.569 112 L 256.569 75.964 C 256.569 67.151 262.282 59.661 270.205 57 C 272.204 56.328 274.344 55.964 276.569 55.964 L 276.569 55.964 L 276.569 55.964 L 276.569 55.964 Z  M 58.027 168.964 L 455.111 168.964 L 455.111 511.258 L 58.027 511.258 L 58.027 168.964 L 58.027 168.964 L 58.027 168.964 L 58.027 168.964 L 58.027 168.964 L 58.027 168.964 L 58.027 168.964 Z  M 20 112 L 319.458 112 L 343.902 112 L 368.347 112 L 392.791 112 L 492 112 C 503.038 112 512 120.962 512 132 L 512 548.147 C 512 559.185 503.038 568.147 492 568.147 L 20 568.147 C 8.962 568.147 0 559.185 0 548.147 L 0 132 C 0 120.962 8.962 112 20 112 L 20 112 L 20 112 L 20 112 L 20 112 L 20 112 L 20 112 Z " fill-rule="evenodd" fill="rgb(151,120,87)"/></svg>